<mxfile host="app.diagrams.net" modified="2023-10-24T02:36:29.262Z" agent="Mozilla/5.0 (Macintosh; Intel Mac OS X 10_15_7) AppleWebKit/537.36 (KHTML, like Gecko) Chrome/118.0.0.0 Safari/537.36" etag="YSutFc6Iecq_hdnSITdU" version="22.0.6" type="device">
  <diagram name="第 1 页" id="UsnHKNDzKejkasqGAjm8">
    <mxGraphModel dx="830" dy="475" grid="1" gridSize="10" guides="1" tooltips="1" connect="1" arrows="1" fold="1" page="1" pageScale="1" pageWidth="827" pageHeight="1169" math="0" shadow="0">
      <root>
        <mxCell id="0" />
        <mxCell id="1" parent="0" />
        <mxCell id="lxmv66diIYHFicmoDVTx-1" value="x &amp;amp;&amp;amp; (y * 2) &amp;gt; 10" style="text;html=1;strokeColor=none;fillColor=none;align=center;verticalAlign=middle;whiteSpace=wrap;rounded=0;" vertex="1" parent="1">
          <mxGeometry width="120" height="30" as="geometry" />
        </mxCell>
        <mxCell id="lxmv66diIYHFicmoDVTx-2" value="" style="endArrow=classic;html=1;rounded=0;exitX=0.5;exitY=1;exitDx=0;exitDy=0;" edge="1" parent="1" source="lxmv66diIYHFicmoDVTx-1">
          <mxGeometry width="50" height="50" relative="1" as="geometry">
            <mxPoint x="200" y="-40" as="sourcePoint" />
            <mxPoint x="80" y="50" as="targetPoint" />
          </mxGeometry>
        </mxCell>
        <mxCell id="lxmv66diIYHFicmoDVTx-3" value="Int" style="text;html=1;strokeColor=none;fillColor=none;align=center;verticalAlign=middle;whiteSpace=wrap;rounded=0;" vertex="1" parent="1">
          <mxGeometry x="70" y="50" width="40" height="20" as="geometry" />
        </mxCell>
        <mxCell id="lxmv66diIYHFicmoDVTx-4" value="Bool" style="text;html=1;strokeColor=none;fillColor=none;align=center;verticalAlign=middle;whiteSpace=wrap;rounded=0;" vertex="1" parent="1">
          <mxGeometry x="10" y="50" width="40" height="20" as="geometry" />
        </mxCell>
        <mxCell id="lxmv66diIYHFicmoDVTx-5" value="" style="endArrow=classic;html=1;rounded=0;exitX=0.157;exitY=0.993;exitDx=0;exitDy=0;exitPerimeter=0;entryX=0.5;entryY=0;entryDx=0;entryDy=0;" edge="1" parent="1" source="lxmv66diIYHFicmoDVTx-1" target="lxmv66diIYHFicmoDVTx-4">
          <mxGeometry width="50" height="50" relative="1" as="geometry">
            <mxPoint x="62" y="40" as="sourcePoint" />
            <mxPoint x="90" y="60" as="targetPoint" />
          </mxGeometry>
        </mxCell>
      </root>
    </mxGraphModel>
  </diagram>
</mxfile>
